<svg id="Layer_1" data-name="Layer 1" xmlns="http://www.w3.org/2000/svg" >
    <defs>
        <style>
            .cls-1 {
                fill: #005efe;
            }

            .cls-2 {
                fill: #0086fe;
            }

            .cls-3 {
                fill: #02b6fe;
            }

            .cls-4 {
                fill: #5decfb;
            }

            .cls-5 {
                fill: #0130f8;
            }

            .cls-6 {
                fill: #21bcf2;
            }

            .cls-7 {
                fill: #1ad2f7;
            }

            .cls-8 {
                fill: #baf4fd;
            }

            .cls-9 {
                fill: #3fd7f3;
            }

            .cls-10 {
                fill: #019dfe;
            }

            .cls-11 {
                fill: #008cf9;
            }

            .cls-12 {
                fill: #00d2fe;
            }
        </style>
    </defs>
    <path class="cls-1"
        d="M387.3,221.11c7.33,6.59,14,13.82,21,20.75q19.15,19,38.17,38.16c.67.67,1.22,1.44,1.83,2.16-1.65.95-2.73-.45-3.86-1.11a41.75,41.75,0,0,0-29.13-5,39.14,39.14,0,0,0-21,10.71q-15.31,15-30.31,30.31a3.26,3.26,0,0,1-1.12.87l-.56-.14c-1.41-.32-2.23-1.44-3.17-2.38-9.31-9.29-18.69-18.5-27.88-27.9-13.46-13.78-34.84-15.59-50.51-6.94-.92.51-2.18,2.58-3.4.16.3-1.31,1.39-2,2.25-2.9,7.14-7.21,14.38-14.32,21.48-21.57,10.2-10.18,20.35-20.39,30.56-30.54a42.55,42.55,0,0,1,30-12.75A40.06,40.06,0,0,1,387.3,221.11Z"
        transform="translate(-15.8 -152.45)" />
    <path class="cls-2"
        d="M387.3,221.11c-1.6.08-2.59-1.13-3.82-1.81A42.68,42.68,0,0,0,332,226.51q-14.16,14.13-28.29,28.27c-.75.74-1.56,1.41-2.35,2.1-1.44-.28-2.2-1.47-3.14-2.4Q284.66,241,271.13,227.41c-13.33-13.3-28.9-16-46.34-9.76a13.06,13.06,0,0,1-3.55,1.1c-.83-.05-1.41-.38-1.44-1.31a14.93,14.93,0,0,1,3.54-4.79c4.86-4.89,9.76-9.73,14.59-14.63a13.7,13.7,0,0,1,3.42-2.37c10.78-10.78,21.2-21.93,32.4-32.24,15.39-14.18,40.69-14.15,56,.17,13.66,12.75,26.61,26.26,39.8,39.51C375.52,209.06,381.71,214.79,387.3,221.11Z"
        transform="translate(-15.8 -152.45)" />
    <path class="cls-3"
        d="M241.35,195.65c-5.86,5.85-11.68,11.73-17.62,17.5-1.29,1.26-1.94,3.09-3.61,4a11.5,11.5,0,0,1-3.75,4.09c-2.23,1.58-3.57,4-5.49,5.87q-13.5,13.35-26.87,26.84c-3.18,3.19-5.9,6.82-9.29,9.81-.86.76-1.6,2.1-3.12,1.13.61-2.75,3.1-4,4.79-5.86,2.26-2.49,2.36-2.44,0-4.78-9.34-9.35-18.61-18.76-28-28A40,40,0,0,0,123,214.86a43.32,43.32,0,0,0-23.8,4.85c-.68.34-1.33.81-2.16.52-.9-1.13.32-1.54.81-2Q125,191,152.12,163.84c.73-.73,1.88-1,2.28-2.11,2.7-2.52,6.08-3.92,9.29-5.59a41.9,41.9,0,0,1,34.5.59c6.5,3.28,11.74,8,16.7,13.34,7.75,8.35,16,16.21,24.09,24.26C239.64,195,240.19,195.88,241.35,195.65Z"
        transform="translate(-15.8 -152.45)" />
    <path class="cls-3"
        d="M241.4,318c-1.34,0-1.94,1.13-2.73,1.92q-14,14-28.06,28.06c-17.25,17.28-45.61,16.68-62.36-1.07-9.27-9.82-18.94-19.28-28.43-28.9a1.5,1.5,0,0,1-.28-.77c.22-1.23,1.18-1.94,2-2.74,2.62-2.66,5.22-5.34,7.92-7.91,6.24-5.94,11.76-12.59,18-18.51,5-4.73,9.54-9.91,14.56-14.61.82-.76,1.44-2.17,3-1.44.25,2.35-1.9,3.13-3,4.55a9.11,9.11,0,0,1-2.55,2.31,41.66,41.66,0,0,1,10-4,47.64,47.64,0,0,1,10.87-.93,44.71,44.71,0,0,1,11.11,1.24,45.28,45.28,0,0,1,10.1,4.11,50.34,50.34,0,0,1,11.11,8.61c9.31,9,18.37,18.26,27.52,27.42a5.68,5.68,0,0,1,1.41,1.81A.85.85,0,0,1,241.4,318Z"
        transform="translate(-15.8 -152.45)" />
    <path class="cls-2"
        d="M241.4,318v-.62c-.26-1.65,1.13-2.32,2-3.22Q257,300.51,270.57,287a47.9,47.9,0,0,0,4.25-4.64c.71-.93,1.39-2.14,2.94-1.81.54,1.8,1.37.31,1.84.05,13.58-7.6,27.41-8,41.44-1.42a36.5,36.5,0,0,1,10.19,7.31l29.25,29.26c.67.68,1.27,1.42,1.9,2.13q-14.56,14.52-29.12,29c-18.36,18.35-44.75,18.39-63.08.05Q255.75,332.49,241.4,318Z"
        transform="translate(-15.8 -152.45)" />
    <path class="cls-4"
        d="M119.85,317.34l0,.64c-1.31.09-1.93,1.17-2.72,2q-14,13.92-27.88,27.86a43,43,0,0,1-61.17,0C12,331.66,11.67,304.51,27.43,288c2.12-2.22,4.34-4.32,6.52-6.48.82.16,1.23-.54,1.82-.88,1.18-.59,2.16-1.51,3.38-2a6,6,0,0,1,.67-.34c.67-.29,1.33-.6,2-.94a5.32,5.32,0,0,1,.69-.3,25.68,25.68,0,0,0,2.88-1.19c17.05-4.82,32.07-1.12,44.8,11.11,9.47,9.09,18.61,18.52,27.89,27.8A5.83,5.83,0,0,1,119.85,317.34Z"
        transform="translate(-15.8 -152.45)" />
    <path class="cls-5"
        d="M362.94,318c.07-1.3,1.11-2,1.9-2.76,9-9,18.08-17.94,27-27,9.85-10.05,21.76-14.49,35.71-13.42,6.89.53,13.12,3.14,19,6.67.58.35,1.06.84,1.8.75,19.33,15.77,23.48,41,9.92,60.26-14.47,20.54-44.05,24.47-62.88,7.79C384,340.14,373.54,328.94,362.94,318Z"
        transform="translate(-15.8 -152.45)" />
    <path class="cls-6"
        d="M154.4,161.73c.09,1.36-1.22,1.61-1.91,2.31q-27.48,27.54-55,55a6.79,6.79,0,0,0-.66.93c-.2,1.13-1.1,1.76-1.83,2.49Q83.26,234.27,71.49,246c-.8.8-1.51,1.76-2.74,2a1.19,1.19,0,0,1-.74-.32c7.73-7.85,15.41-15.74,23.19-23.54q29.14-29.22,58.35-58.37A17.82,17.82,0,0,1,154.4,161.73Z"
        transform="translate(-15.8 -152.45)" />
    <path class="cls-7"
        d="M68,247.64l.63,0c.7,1.61-.75,2.22-1.53,3-8.82,8.9-17.82,17.62-26.54,26.61-.35.36-1.47.49-.77,1.47a12.87,12.87,0,0,1-4,2.34.77.77,0,0,1,0-1.15C46.24,268.9,57,258.18,68,247.64Z"
        transform="translate(-15.8 -152.45)" />
    <path class="cls-8"
        d="M198.19,156.73c-5.65-1.81-11.27-3.56-17.33-3.63s-11.56,1.39-17.17,3c3.09-2.33,6.84-3.06,10.43-3.38,7-.62,14.15-.49,20.91,2.16C196.18,155.37,197.43,155.62,198.19,156.73Z"
        transform="translate(-15.8 -152.45)" />
    <path class="cls-9" d="M35.78,280c0,.39,0,.77,0,1.15-.48.7-.9,1.59-1.81.43C34.44,280.87,34.85,280.11,35.78,280Z"
        transform="translate(-15.8 -152.45)" />
    <path class="cls-10"
        d="M277.76,280.51c-2.32,1.18-3.31,3.62-5.06,5.35-9.79,9.67-19.49,19.42-29.2,29.15-.74.74-1.39,1.56-2.09,2.34q-9.1-9-18.22-17.94c-5.73-5.63-11.16-11.57-17.58-16.48A39.36,39.36,0,0,0,184,274.75c-9.21-.65-18,.72-26.76,6.18,2.44-3.92,6.11-5.59,7.61-9.07a20.66,20.66,0,0,1,6.91-6.91c3.3-1.56,5.47-4.47,7.75-7.08,2.47-2.82,5.09-5.45,7.71-8.1q12-12,24-24c1.69-1.67,2.66-4,4.87-5.19,2-.17,3.12-2.3,5.18-2.31,6.82-3,13.89-5,21.38-4.56,10.32.58,19.63,3.92,27.12,11.32,9.9,9.77,19.69,19.64,29.51,29.49.74.74,1.39,1.57,2.08,2.35C293.71,265,285.81,272.82,277.76,280.51Z"
        transform="translate(-15.8 -152.45)" />
    <path class="cls-11" d="M221.27,218.28c-1.73.76-2.81,3-5.18,2.31l4-3.46A1,1,0,0,0,221.27,218.28Z"
        transform="translate(-15.8 -152.45)" />
    <path class="cls-12"
        d="M171.74,265a54.35,54.35,0,0,1-6.91,6.91,83.12,83.12,0,0,0-10.65,10.82c-1,1.3-2.51,2.06-3.64,3.21q-15.39,15.67-30.69,31.45c-4.21-3.5-7.83-7.6-11.72-11.43-5.88-5.79-11.68-11.66-17.52-17.48-12.51-12.5-27.3-16.62-44.45-12.07a8.64,8.64,0,0,1-1.14.12,23.46,23.46,0,0,0-2.91,1.15h0a7.17,7.17,0,0,0-2.32,1.14h0c-.67-.08-1.89.2-.64-1.06,4.91-5,9.8-9.95,14.72-14.89s10.33-9.61,14.76-15.14Q81,235.49,93.26,223.3c1.15-1.14,2.38-2.2,3.57-3.29,4.81-2.29,9.58-4.67,15-5.47,12.35-1.84,23.91.1,33.59,8.31,11.84,10.05,22.1,21.78,33.27,32.54,1.11,1.06.71,1.64-.15,2.53C176.23,260.25,173.68,262.31,171.74,265Z"
        transform="translate(-15.8 -152.45)" />
    <path class="cls-7" d="M42.11,277.63A3.14,3.14,0,0,1,45,276.48,3.67,3.67,0,0,1,42.11,277.63Z"
        transform="translate(-15.8 -152.45)" />
    <path class="cls-7" d="M39.8,278.76a2,2,0,0,1,2.32-1.14A3.27,3.27,0,0,1,39.8,278.76Z"
        transform="translate(-15.8 -152.45)" />
</svg>